<svg width="744" height="744" viewBox="0 0 744 744" fill="none" xmlns="http://www.w3.org/2000/svg">
<rect x="0.571289" y="0.571411" width="742.857" height="742.857" rx="40" fill="#D9D9D9"/>
<path d="M328.336 377.06H323.596L325.336 375.74V387.8L324.136 386.12L331.036 387.68V392H312.316V387.68L318.076 386L316.756 387.8V354.08L318.256 355.94L312.316 354.38V350.06L325.516 349.76H330.976C334.296 349.76 337.016 350.34 339.136 351.5C341.256 352.62 342.816 354.16 343.816 356.12C344.856 358.08 345.376 360.3 345.376 362.78C345.376 365.46 344.756 367.9 343.516 370.1C342.316 372.26 340.456 373.96 337.936 375.2C335.456 376.44 332.256 377.06 328.336 377.06ZM329.596 355.88H324.016L325.336 354.56V372.2L323.596 370.88H328.396C331.076 370.88 333.116 370.16 334.516 368.72C335.916 367.28 336.616 365.36 336.616 362.96C336.616 360.76 336.016 359.04 334.816 357.8C333.656 356.52 331.916 355.88 329.596 355.88ZM374.527 350.06L390.427 349.76V354.08L384.787 355.94L386.047 354.14V392H376.147L358.027 358.82H359.227V387.8L357.967 386L363.667 387.68V392H347.707V387.68L353.407 386L352.147 387.8V354.2L352.987 355.76L347.707 354.38V350.06L362.347 349.76L380.167 382.28H378.907V354.14L380.227 355.88L374.527 354.38V350.06ZM414.035 392.72C410.115 392.72 406.675 391.9 403.715 390.26C400.755 388.62 398.455 386.2 396.815 383C395.215 379.8 394.415 375.84 394.415 371.12C394.415 366.48 395.215 362.52 396.815 359.24C398.455 355.92 400.795 353.4 403.835 351.68C406.875 349.92 410.535 349.04 414.815 349.04C417.135 349.04 419.535 349.3 422.015 349.82C424.535 350.34 427.075 351.14 429.635 352.22L429.035 362.96H423.935L422.495 356L423.815 357.2C422.415 356.72 420.995 356.34 419.555 356.06C418.115 355.74 416.755 355.58 415.475 355.58C412.995 355.58 410.875 356.16 409.115 357.32C407.355 358.48 405.995 360.2 405.035 362.48C404.115 364.76 403.655 367.6 403.655 371C403.655 375.72 404.615 379.42 406.535 382.1C408.495 384.78 411.335 386.12 415.055 386.12C416.175 386.12 417.355 386 418.595 385.76C419.835 385.48 421.115 385.1 422.435 384.62L421.415 386.42V375.02L422.795 376.52L417.035 375.38V370.94L433.715 370.64V375.14L428.555 376.52L429.395 375.02V389.36C426.635 390.48 423.955 391.32 421.355 391.88C418.755 392.44 416.315 392.72 414.035 392.72Z" fill="black"/>
</svg>
